HIERARCHY
ROOT SpineBase
{
  OFFSET 0.000000 0.000000 0.000000
  CHANNELS 6 Xposition Yposition Zposition Zrotation Xrotation Yrotation
  JOINT SpineMid
  {
    OFFSET 0.000000 31.998659 0.000000
    CHANNELS 3 Zrotation Xrotation Yrotation
    JOINT SpineShoulder
    {
      OFFSET 0.048986 23.712506 -0.774490
      CHANNELS 3 Zrotation Xrotation Yrotation
      JOINT Neck
      {
        OFFSET 0.039051 7.825271 -0.585831
        CHANNELS 3 Zrotation Xrotation Yrotation
        JOINT Head
        {
          OFFSET 5.265572 11.725210 6.160707
          CHANNELS 3 Zrotation Xrotation Yrotation
          End Site
          {
            OFFSET 0 0 0
          }
        }
      }
      JOINT ShoulderLeft
      {
        OFFSET -9.240448 -3.366515 -14.174966
        CHANNELS 3 Zrotation Xrotation Yrotation
        JOINT ElbowLeft
        {
          OFFSET -7.146991 -27.077979 -7.735031
          CHANNELS 3 Zrotation Xrotation Yrotation
          JOINT WristLeft
          {
            OFFSET 3.163134 -23.414978 -4.540947
            CHANNELS 3 Zrotation Xrotation Yrotation
            JOINT HandLeft
            {
              OFFSET 1.198857 -8.080266 0.925482
              CHANNELS 3 Zrotation Xrotation Yrotation
              JOINT HandTipLeft
              {
                OFFSET 1.347117 -6.644428 2.309153
                CHANNELS 3 Zrotation Xrotation Yrotation
                End Site
                {
                  OFFSET 0 0 0
                }
              }
              JOINT ThumbLeft
              {
                OFFSET 2.807468 2.323083 1.299942
                CHANNELS 3 Zrotation Xrotation Yrotation
                End Site
                {
                  OFFSET 0 0 0
                }
              }
            }
          }
        }
      }
      JOINT ShoulderRight
      {
        OFFSET 8.899424 -5.535053 10.265315
        CHANNELS 3 Zrotation Xrotation Yrotation
        JOINT ElbowRight
        {
          OFFSET 3.117594 -30.870657 7.581669
          CHANNELS 3 Zrotation Xrotation Yrotation
          JOINT WristRight
          {
            OFFSET 1.333207 -25.468868 2.509591
            CHANNELS 3 Zrotation Xrotation Yrotation
            JOINT HandRight
            {
              OFFSET -0.754206 -5.567180 1.661075
              CHANNELS 3 Zrotation Xrotation Yrotation
              JOINT HandTipRight
              {
                OFFSET 0.771748 -4.872833 -0.401873
                CHANNELS 3 Zrotation Xrotation Yrotation
                End Site
                {
                  OFFSET 0 0 0
                }
              }
              JOINT ThumbRight
              {
                OFFSET -2.310877 0.948306 -2.911872
                CHANNELS 3 Zrotation Xrotation Yrotation
                End Site
                {
                  OFFSET 0 0 0
                }
              }
            }
          }
        }
      }
    }
  }
  JOINT HipLeft
  {
    OFFSET -4.093729 1.110203 -8.819175
    CHANNELS 3 Zrotation Xrotation Yrotation
    JOINT KneeLeft
    {
      OFFSET -10.881325 -34.760608 -2.931363
      CHANNELS 3 Zrotation Xrotation Yrotation
      JOINT AnkleLeft
      {
        OFFSET -12.043378 -37.908745 -0.547023
        CHANNELS 3 Zrotation Xrotation Yrotation
        JOINT FootLeft
        {
          OFFSET -2.031923 -7.344101 -8.520831
          CHANNELS 3 Zrotation Xrotation Yrotation
          End Site
          {
            OFFSET 0 0 0
          }
        }
      }
    }
  }
  JOINT HipRight
  {
    OFFSET 4.746669 0.241517 1.673941
    CHANNELS 3 Zrotation Xrotation Yrotation
    JOINT KneeRight
    {
      OFFSET -3.730075 -37.214369 5.915781
      CHANNELS 3 Zrotation Xrotation Yrotation
      JOINT AnkleRight
      {
        OFFSET -7.655811 -35.372562 7.286067
        CHANNELS 3 Zrotation Xrotation Yrotation
        JOINT FootRight
        {
          OFFSET 1.730729 -8.454949 -4.855055
          CHANNELS 3 Zrotation Xrotation Yrotation
          End Site
          {
            OFFSET 0 0 0
          }
        }
      }
    }
  }
}
MOTION
Frames: 13
Frame Time: 0.033333
-33.938504 82.912821 352.202771 3.503529 -2.531408 -43.278993 0.307611 0.137813 43.482606 0.010269 -0.021654 0.170003 0.933509 -11.910670 4.632735 0.000000 0.000000 0.000000 1.412553 -1.222611 -0.762961 -2.862783 3.067775 -0.056852 -0.497350 8.038964 1.754056 1.778438 7.082947 2.903265 0.000000 0.000000 0.000000 0.000000 0.000000 0.000000 30.073587 -0.177297 7.052124 54.171552 28.883047 -27.611471 28.967354 29.495824 -14.677261 -29.351126 -28.039062 -15.918453 0.000000 0.000000 0.000000 0.000000 0.000000 0.000000 -3.162045 0.938879 43.074362 -1.044442 -1.660640 0.679707 -1.205781 2.176828 -0.129610 0.000000 0.000000 0.000000 -4.284867 -0.561478 43.335420 0.671387 -2.637245 0.722120 0.177707 2.862205 -1.150331 0.000000 0.000000 0.000000
-34.073841 83.029199 352.098613 3.886436 -2.607027 -42.578558 0.346436 0.169916 42.806353 0.012868 -0.021847 0.188739 1.573811 -13.473971 5.047591 0.000000 0.000000 0.000000 1.565757 -1.025744 -1.011120 -2.679653 3.621180 0.044441 -4.750703 8.160541 1.796257 5.206235 7.416260 3.720549 0.000000 0.000000 0.000000 0.000000 0.000000 0.000000 39.975330 0.314271 9.269107 58.802365 29.349203 -37.912937 19.367773 26.059311 -22.042447 -18.960309 -31.496016 -3.658723 0.000000 0.000000 0.000000 0.000000 0.000000 0.000000 -3.504315 1.112678 42.275721 -1.075332 -2.132925 0.848499 -1.440637 2.685059 -0.193711 0.000000 0.000000 0.000000 -4.624213 -0.712957 42.638240 0.753027 -2.767289 0.769605 0.023398 3.334789 -1.076174 0.000000 0.000000 0.000000
-34.202813 83.177962 352.039098 4.251005 -2.685941 -42.021297 0.360467 0.198052 42.272074 0.012724 -0.017414 0.205418 2.024865 -14.723301 5.416339 0.000000 0.000000 0.000000 1.555638 -0.883606 -1.181360 -2.358757 4.148632 0.071665 -9.035313 6.000223 1.326286 9.045814 9.842479 4.748914 0.000000 0.000000 0.000000 0.000000 0.000000 0.000000 49.115353 1.568355 11.040042 64.178723 31.417735 -52.975039 13.236399 18.842114 -12.822355 -21.401656 -27.561100 -8.010852 0.000000 0.000000 0.000000 0.000000 0.000000 0.000000 -3.771439 1.345690 41.615009 -1.285055 -2.650455 1.037564 -1.598113 2.467460 -0.037355 0.000000 0.000000 0.000000 -4.954263 -0.853917 42.084060 0.813871 -2.899028 0.812819 -0.183510 3.658520 -0.983051 0.000000 0.000000 0.000000
-34.340382 83.362120 352.022663 4.568998 -2.753140 -41.443684 0.344209 0.217388 41.713920 0.008192 -0.015679 0.218727 2.860949 -15.961544 5.664835 0.000000 0.000000 0.000000 1.493864 -0.881286 -1.267869 -2.379930 4.631743 0.126813 -10.227725 4.051706 0.873239 10.063302 12.872656 5.278129 0.000000 0.000000 0.000000 0.000000 0.000000 0.000000 59.181739 4.707362 12.039622 66.258040 31.316310 -66.900202 6.747515 10.432588 -6.994714 -18.716308 -24.893083 -6.285658 0.000000 0.000000 0.000000 0.000000 0.000000 0.000000 -3.858504 1.686077 40.927173 -1.706372 -3.037009 1.193247 -1.624394 2.603018 -0.057779 0.000000 0.000000 0.000000 -5.395330 0.010283 41.509784 0.317158 -3.854152 0.855918 -0.806617 3.036602 -0.805303 0.000000 0.000000 0.000000
-34.443667 83.567570 352.054513 4.827629 -2.814914 -40.757679 0.299103 0.249441 41.042569 0.004880 -0.007031 0.228547 4.054937 -17.048856 5.707801 0.000000 0.000000 0.000000 1.285556 -1.005543 -1.251415 -2.368477 5.121495 0.127050 -10.703774 2.115531 0.409904 10.501587 15.183406 5.529302 0.000000 0.000000 0.000000 0.000000 0.000000 0.000000 68.024824 9.072260 11.585442 65.362275 30.866551 -78.035187 2.215539 1.177305 -1.076411 -16.122452 -19.773817 -5.955244 0.000000 0.000000 0.000000 0.000000 0.000000 0.000000 -3.852701 2.160763 40.105870 -2.290474 -3.369396 1.331371 -1.520375 2.939136 -0.192641 0.000000 0.000000 0.000000 -5.729618 0.117640 40.813293 0.278390 -4.127613 0.888269 -0.256826 3.723943 -1.033114 0.000000 0.000000 0.000000
-34.553387 83.820552 352.121185 4.971574 -2.852193 -39.806752 0.222525 0.273505 40.097886 0.001875 0.011625 0.231591 5.350143 -17.885725 5.617717 0.000000 0.000000 0.000000 1.022484 -1.297478 -1.123911 -2.576377 5.493956 0.121082 -10.276233 1.634544 0.235268 9.133160 17.055860 5.531129 0.000000 0.000000 0.000000 0.000000 0.000000 0.000000 76.471909 13.400177 10.304313 60.171684 30.236927 -84.083114 -2.447447 -5.515793 -7.656271 -9.992487 -16.562461 2.667947 0.000000 0.000000 0.000000 0.000000 0.000000 0.000000 -3.612618 2.527174 39.085691 -2.795312 -3.393607 1.371189 -1.446957 2.920119 -0.258428 0.000000 0.000000 0.000000 -5.971990 0.299649 39.850500 0.272331 -4.342398 0.914220 0.070371 3.852655 -1.226455 0.000000 0.000000 0.000000
-34.666752 84.103208 352.210054 5.092245 -2.853678 -38.517205 0.179678 0.314525 38.812160 0.016937 0.024260 0.236201 7.057600 -19.222194 5.699050 0.000000 0.000000 0.000000 0.735763 -1.681481 -0.976537 -3.039624 6.019628 0.180527 -9.225566 0.386515 -0.100425 7.923310 19.564010 5.680332 0.000000 0.000000 0.000000 0.000000 0.000000 0.000000 84.415961 19.380184 6.679719 49.835751 29.217095 -81.023662 -13.122032 -12.525496 -22.171074 -0.523248 -6.171195 14.061151 0.000000 0.000000 0.000000 0.000000 0.000000 0.000000 -3.213516 2.775628 37.770404 -3.277982 -3.124414 1.320144 -1.500723 2.968653 -0.219735 0.000000 0.000000 0.000000 -6.162464 0.466020 38.548839 0.290411 -4.498143 0.935381 0.179431 3.977829 -1.274065 0.000000 0.000000 0.000000
-34.774999 84.374342 352.311849 5.224475 -2.801573 -37.008868 0.151900 0.368881 37.305746 0.020896 0.033228 0.241468 8.968772 -20.940494 6.005148 0.000000 0.000000 0.000000 0.475678 -2.130236 -0.837374 -3.873630 6.537304 0.352190 -7.418342 -1.338050 -0.510233 6.471912 22.702720 5.945874 0.000000 0.000000 0.000000 0.000000 0.000000 0.000000 91.364602 26.910839 -0.073689 39.931092 28.454872 -76.723542 -29.249389 -29.410947 -27.099323 7.568852 12.857011 13.129968 0.000000 0.000000 0.000000 0.000000 0.000000 0.000000 -2.948189 3.284260 36.109254 -3.784724 -3.377499 1.429537 -1.653627 2.790543 -0.018409 0.000000 0.000000 0.000000 -6.273026 0.609690 37.034851 0.252461 -4.585468 0.934074 0.060271 4.248729 -1.119226 0.000000 0.000000 0.000000
-34.813708 84.641672 352.432484 5.420316 -2.746616 -35.475708 0.118758 0.424808 35.777302 0.006526 0.040698 0.248189 10.824988 -22.630609 6.389074 0.000000 0.000000 0.000000 0.462787 -2.901330 -0.683146 -5.266434 7.265665 0.627840 -4.476890 -2.050933 -0.608483 3.155669 23.634383 5.639065 0.000000 0.000000 0.000000 0.000000 0.000000 0.000000 97.441458 33.380093 -7.773327 28.990663 27.500288 -70.729913 -26.285647 -39.768926 -13.918866 7.597705 20.586183 1.019717 0.000000 0.000000 0.000000 0.000000 0.000000 0.000000 -2.788218 3.678550 34.434772 -4.201549 -3.554977 1.504345 -1.812652 2.633014 0.199404 0.000000 0.000000 0.000000 -6.482042 0.684258 35.484616 0.274231 -4.665574 0.940915 -0.104733 4.358540 -0.961242 0.000000 0.000000 0.000000
-34.895471 84.794309 352.510583 5.591227 -2.601186 -33.593223 0.089868 0.435486 33.895142 -0.022821 0.034080 0.252508 12.509309 -24.373041 7.000873 0.000000 0.000000 0.000000 1.450827 -3.579454 -0.830821 -8.538588 7.144441 1.476133 1.063508 -1.427309 -0.386281 -1.463521 24.052628 5.143512 0.000000 0.000000 0.000000 0.000000 0.000000 0.000000 100.585163 39.272061 -15.824366 19.018334 26.228045 -62.932242 -7.956294 -37.335105 9.738029 0.076046 16.286335 -10.260395 0.000000 0.000000 0.000000 0.000000 0.000000 0.000000 -2.514679 3.987204 32.415052 -4.609653 -3.644472 1.547568 -1.961735 2.494988 0.410757 0.000000 0.000000 0.000000 -6.420635 0.630417 33.615635 0.166739 -4.544351 0.901848 -0.129199 4.350320 -0.894616 0.000000 0.000000 0.000000
-35.027681 84.838211 352.547925 5.816391 -2.411843 -31.414174 0.050035 0.410644 31.717369 -0.067945 0.023886 0.256956 14.357902 -26.187444 7.714358 0.000000 0.000000 0.000000 1.734953 -4.757409 -0.601259 -9.732772 8.209625 1.699922 4.562062 -0.828650 -0.063753 -5.233411 23.695909 4.551742 0.000000 0.000000 0.000000 0.000000 0.000000 0.000000 101.343354 43.850578 -22.170977 10.044320 23.915387 -54.795248 5.661096 -20.130631 20.113054 -15.310678 3.451787 -16.049644 0.000000 0.000000 0.000000 0.000000 0.000000 0.000000 -2.198830 4.244969 30.090449 -5.049119 -3.723209 1.586776 -2.068662 2.362124 0.570598 0.000000 0.000000 0.000000 -6.280634 0.493474 31.467954 -0.030076 -4.383203 0.848680 -0.269940 4.215838 -0.789007 0.000000 0.000000 0.000000
-35.270266 84.745659 352.495736 5.968751 -2.125100 -28.992764 0.074702 0.344813 29.291657 -0.088078 -0.010669 0.262452 16.052235 -27.912016 8.534394 0.000000 0.000000 0.000000 1.817928 -5.978401 -0.288688 -9.683982 9.823270 1.595096 7.194249 -0.022554 0.489165 -8.677150 22.998703 3.836346 0.000000 0.000000 0.000000 0.000000 0.000000 0.000000 98.131382 46.823301 -24.703594 5.187191 22.761235 -49.184404 9.758511 -12.632490 19.977997 -20.541350 -3.145150 -15.841439 0.000000 0.000000 0.000000 0.000000 0.000000 0.000000 -1.642418 4.379974 27.542452 -5.541778 -3.677529 1.591714 -2.114159 2.287102 0.638792 0.000000 0.000000 0.000000 -5.797700 0.217344 29.121757 -0.416298 -3.998768 0.739619 -0.163594 4.169836 -0.802292 0.000000 0.000000 0.000000
-35.597479 84.558472 352.382914 6.050396 -1.808717 -26.540234 0.098372 0.255425 26.830348 -0.091526 -0.049980 0.265927 17.572119 -29.426146 9.354926 0.000000 0.000000 0.000000 2.135572 -7.055371 -0.060578 -9.338456 11.379724 1.412606 6.451556 -2.509495 0.405266 -10.021663 24.364373 4.062912 0.000000 0.000000 0.000000 0.000000 0.000000 0.000000 92.332957 48.091952 -23.591887 2.300887 22.744195 -45.272899 11.153151 -8.011489 16.336553 -22.674416 -7.877233 -13.775567 0.000000 0.000000 0.000000 0.000000 0.000000 0.000000 -0.939087 4.351106 25.010404 -6.064550 -3.486208 1.554919 -2.117113 1.945286 0.760142 0.000000 0.000000 0.000000 -5.128906 -0.107033 26.774150 -0.917495 -3.611625 0.625440 -0.240605 4.139993 -0.734799 0.000000 0.000000 0.000000
